<?xml version="1.0" encoding="UTF-8"?>
<!DOCTYPE svg PUBLIC "-//W3C//DTD SVG 1.1//EN" "http://www.w3.org/Graphics/SVG/1.1/DTD/svg11.dtd">
<!-- Creator: CorelDRAW X7 -->
<svg xmlns="http://www.w3.org/2000/svg" xml:space="preserve" width="157.502mm" height="189.441mm" version="1.1" style="shape-rendering:geometricPrecision; text-rendering:geometricPrecision; image-rendering:optimizeQuality; fill-rule:evenodd; clip-rule:evenodd"
viewBox="0 0 15750 18944"
 xmlns:xlink="http://www.w3.org/1999/xlink">
 <defs>
  <style type="text/css">
   <![CDATA[
    .fil0 {fill:url(#id0);fill-opacity:0.301961}
    .fil3 {fill:url(#id1);fill-opacity:0.301961}
    .fil2 {fill:url(#id2);fill-opacity:0.301961}
    .fil1 {fill:url(#id3);fill-opacity:0.301961}
   ]]>
  </style>
  <linearGradient id="id0" gradientUnits="userSpaceOnUse" x1="9778.44" y1="51.2" x2="8785.96" y2="6423.36">
   <stop offset="0" style="stop-opacity:1; stop-color:#BDBDBD"/>
   <stop offset="1" style="stop-opacity:1; stop-color:#EEEEEE"/>
  </linearGradient>
  <linearGradient id="id1" gradientUnits="userSpaceOnUse" x1="1201.57" y1="8876.27" x2="5731.21" y2="9116.21">
   <stop offset="0" style="stop-opacity:1; stop-color:#8693F2"/>
   <stop offset="1" style="stop-opacity:1; stop-color:#1D33E7"/>
  </linearGradient>
  <linearGradient id="id2" gradientUnits="userSpaceOnUse" x1="14209" y1="10384.3" x2="10358.9" y2="9521.29">
   <stop offset="0" style="stop-opacity:1; stop-color:#A3DA9A"/>
   <stop offset="1" style="stop-opacity:1; stop-color:#27A823"/>
  </linearGradient>
  <linearGradient id="id3" gradientUnits="userSpaceOnUse" x1="6545.5" y1="18067.6" x2="6369.98" y2="13371.5">
   <stop offset="0" style="stop-opacity:1; stop-color:#E4E4E4"/>
   <stop offset="1" style="stop-opacity:1; stop-color:#9F9F9F"/>
  </linearGradient>
 </defs>
 <g id="Camada_x0020_1">
  <metadata id="CorelCorpID_0Corel-Layer"/>
  <g id="_750153533984">
   <path class="fil0" d="M6323 3631l-821 162c-89,18 -194,45 -277,53 610,1141 1079,2104 2367,2494 620,187 1220,157 1884,0 705,-165 805,-268 1428,-601 502,-268 1004,-537 1505,-805 510,-273 983,-503 1479,-769 502,-268 1003,-537 1505,-805 -119,-64 -335,-94 -503,-145l-2597 -710c-152,-46 -104,-45 -290,56 -323,177 -2210,1200 -2354,1252 -428,151 -819,252 -1214,295 -269,29 -575,34 -837,4 -759,-86 -1144,-438 -1275,-481zm-1098 215c83,-8 188,-35 277,-53l821 -162c-260,-262 -382,-232 -807,-823 -241,-334 -773,-1388 -1030,-1869 -96,-178 -234,-480 -340,-635 -57,-85 -145,-81 -226,-106 -88,-27 -163,-53 -251,-76 -55,-15 -62,-10 -115,-21 -138,-29 -278,-116 -383,-91l2054 3836z"/>
   <path class="fil1" d="M10844 15740c-70,5 -132,20 -211,38 -61,14 -125,23 -194,38 -83,19 -331,75 -400,75l296 411c130,181 913,1674 1103,2029 284,530 88,322 906,571 74,22 135,61 215,42l-1715 -3204zm-805 151c69,0 317,-56 400,-75 69,-15 133,-24 194,-38 79,-18 141,-33 211,-38l-946 -1757c-36,-50 -116,-152 -153,-210 -92,46 -1053,222 -1166,241l-873 173c-89,21 -188,40 -275,57l-5785 1139c-198,45 -386,81 -583,117 -123,23 -458,73 -570,122 76,47 1014,302 1107,319 205,38 827,245 1109,304 87,18 177,52 265,79l561 152c98,0 256,-118 356,-171 471,-252 958,-531 1433,-768l699 -350c482,-261 1437,-387 1918,-364 340,17 819,132 1113,291 327,177 476,281 749,538l174 178c48,53 7,25 62,61zm-9546 -269c112,-49 447,-99 570,-122 197,-36 385,-72 583,-117l5785 -1139c87,-17 186,-36 275,-57l873 -173c113,-19 1074,-195 1166,-241 -78,-137 -307,-365 -405,-457 -361,-341 -591,-488 -1034,-652 -55,-20 -64,-33 -121,-52 -58,-20 -74,-16 -129,-26 -253,-47 -325,-94 -670,-96 -515,-3 -1313,109 -1770,325 -211,100 -443,238 -653,350 -230,123 -408,195 -644,321l-2648 1418c-456,244 -873,444 -1315,680 48,52 73,61 137,38z"/>
   <path class="fil2" d="M13757 5658c229,-122 458,-244 687,-367 246,-132 416,-246 661,-377 663,-355 303,-133 560,-697 39,-85 75,-184 85,-278l-1902 1018c17,66 -3,115 -13,180 -11,68 -21,112 -31,173l-47 348zm-1276 53c34,130 -147,784 -122,906l589 -502c215,-168 543,-314 809,-457l47 -348c10,-61 20,-105 31,-173 10,-65 30,-114 13,-180 -248,132 -418,247 -664,378 -234,126 -468,251 -703,376zm-2944 6104c39,-72 102,-496 118,-604 16,-104 27,-201 47,-304 20,-112 32,-203 52,-319l407 -2460c16,-107 26,-199 47,-305l101 -608c18,-117 39,-209 48,-320 -282,182 -787,729 -976,997 -129,182 -227,347 -314,543 -74,168 -164,417 -195,594 -186,1072 130,1786 665,2786zm820 -4920c-9,111 -30,203 -48,320l-101 608c-21,106 -31,198 -47,305l-407 2460c-20,116 -32,207 -52,319 -20,103 -31,200 -47,304 -16,108 -79,532 -118,604l747 1396c63,-69 147,-761 161,-849l212 -1303c158,-1050 365,-2205 537,-3257 12,-74 18,-137 32,-218 23,-132 220,-1225 200,-1308 -187,101 -375,201 -563,302 -87,46 -189,95 -272,145 -82,49 -159,123 -234,172zm-73 6316l948 1772c34,-37 11,-5 24,-50 6,-18 9,-51 12,-71 9,-61 14,-72 24,-130l296 -1825c27,-177 62,-345 89,-521l212 -1303c12,-79 20,-196 56,-261 -503,-939 -649,-1554 -575,-2328l108 -499c247,-571 348,-820 826,-1315l55 -63c-25,-122 156,-776 122,-906l-1055 565c20,83 -177,1176 -200,1308 -14,81 -20,144 -32,218 -172,1052 -379,2207 -537,3257l-212 1303c-14,88 -98,780 -161,849zm948 1772l527 984c60,-56 262,-752 300,-867 21,-67 39,-84 61,-149l241 -747c63,-208 132,-385 195,-595l294 -868c57,-187 55,-127 -68,-355 -280,-520 -558,-1043 -837,-1564 -36,65 -44,182 -56,261l-212 1303c-27,176 -62,344 -89,521l-296 1825c-10,58 -15,69 -24,130 -3,20 -6,53 -12,71 -13,45 10,13 -24,50z"/>
   <path class="fil3" d="M1415 14248c8,-75 24,-107 57,-180 32,-70 42,-121 64,-193 39,-132 113,-258 124,-389l-1345 718c-128,72 -87,70 -165,330 -44,144 -142,387 -151,471l1416 -757zm245 -762c-11,131 -85,257 -124,389 -22,72 -32,123 -64,193 -33,73 -49,105 -57,180l1797 -962 289 -867c41,-103 88,-187 93,-294 -52,33 -134,130 -192,187 -210,208 -363,349 -620,542 -201,150 -897,512 -1122,632zm3493 -1262c179,-96 400,-293 538,-419 382,-348 713,-722 934,-1176 303,-621 395,-1295 221,-1985 -53,-210 -109,-447 -226,-666 -86,135 -104,280 -153,414l-366 1060c-123,336 -295,886 -416,1180l-139 400c-15,47 -23,77 -37,125 -48,160 -355,970 -356,1067zm-759 -2390c-1,5 -3,8 -1,14 39,112 -29,718 -74,903 -34,143 -5,117 -84,294 -25,56 -27,84 -49,137 -117,279 -230,443 -400,684l-185 246c-1,3 -5,8 -7,13 -5,107 -52,191 -93,294l-289 867c342,-183 620,-356 949,-531 330,-177 661,-354 992,-531 1,-97 308,-907 356,-1067 14,-48 22,-78 37,-125l139 -400c121,-294 293,-844 416,-1180l366 -1060c49,-134 67,-279 153,-414 5,-30 12,10 -4,-43l-944 -1771c-91,196 -310,916 -400,1153l-289 809c-16,40 -22,69 -35,111l-554 1597zm-551 -1595c168,313 292,547 379,826 43,138 74,254 105,382 32,134 32,265 67,387l554 -1597c13,-42 19,-71 35,-111l289 -809c90,-237 309,-957 400,-1153l-660 -1233c-117,252 -323,988 -439,1247l-425 1239c-44,148 -95,263 -140,414 -25,84 -53,121 -78,204 -23,75 -23,146 -87,204zm-515 -963l515 963c64,-58 64,-129 87,-204 25,-83 53,-120 78,-204 45,-151 96,-266 140,-414l425 -1239c116,-259 322,-995 439,-1247l-515 -963 -368 1042c-25,85 -52,122 -78,205l-498 1444c-30,102 -170,566 -225,617zm0 0c55,-51 195,-515 225,-617l498 -1444c26,-83 53,-120 78,-205l368 -1042 -525 -981c-42,78 -56,161 -83,249l-1016 3050c-41,127 -10,121 95,318 120,224 240,448 360,672z"/>
  </g>
 </g>
</svg>
